<svg width="794" height="323" viewBox="0 0 794 323" fill="none" xmlns="http://www.w3.org/2000/svg">
<path d="M17.0762 259.387C0.136324 244.705 -1.04006 218.919 0.489238 207.861L8.25351 213.155L94.0118 264.327C106.999 264.892 104.834 255.387 102.129 250.564L0.489238 188.804L2.60688 113.28C5.71253 99.1631 19.6644 98.6926 26.2522 100.222L97.5409 144.336L144.126 119.632L143.42 161.982L97.5409 186.686L54.8382 160.218C51.662 157.512 44.3214 153.512 40.3687 159.159C36.4161 164.806 38.7218 168.805 40.3687 170.099C67.1903 187.039 130.715 225.154 130.715 225.154C139.185 231.154 141.302 235.271 141.655 238.212L140.244 298.56C141.655 322.841 126.48 323.97 118.716 321.5C91.8942 306.913 17.0762 259.387 17.0762 259.387Z" fill="#4FD1C5"/>
<path d="M302.286 226.425C298.981 248.596 277.446 265.333 267.293 269.974V259.033L265.97 161.097C259.481 149.833 252.619 156.759 250 161.629V280.561L184.06 317.864C170.48 322.815 162.6 311.292 160.357 304.911L161.063 219.859L116.191 194.155L152.312 172.036L197.77 197.507L197.414 249.151C197.414 249.151 197.414 255.42 198.827 257.975C200.241 260.529 202.886 261.69 205.886 261.504C212.784 261.077 213.65 259.739 214.436 254.656C214.347 222.933 214.436 151.041 214.436 151.041C214 140.453 217.295 136.679 219.588 134.803L272.381 104.237C292.116 90.0226 301.209 102.225 303.288 110.103L302.286 226.425Z" fill="#179F93"/>
<path d="M133.538 3.17047C154.245 -5.4171 178.625 5.4787 187.832 11.7911L95.0683 68.4661C87.3042 77.6419 97.5202 81.4385 103.044 81.175L202.153 21.5946L270.875 59.1066C282.113 68.1966 275.761 84.3473 271.982 86.0952L198.119 129.52L197.413 181.398L160.004 160.224L160.651 109.351L205.1 83.0547C205.1 83.0547 210.223 80.2597 211.935 77.2978C213.648 74.3359 213.029 71.9058 211.325 69.43C207.405 63.7369 202.354 65.4949 200.943 66.3487C173.798 82.765 112.239 119 112.239 119C103.388 124.826 98.4553 123.946 95.6669 122.947L40.0137 91.0527C19.5447 83.2886 25.1435 66.2168 29.7792 62.1137L133.538 3.17047Z" fill="#8FFFF5"/>
<path fill-rule="evenodd" clip-rule="evenodd" d="M644.012 216.998H665.512V177.998H687.512C692.012 176.831 701.112 172.398 703.512 159.998V129.998C703.345 126.165 699.912 118.098 687.512 116.498H644.512L644.012 216.998ZM666.012 162.499V131.999H676.512C679.273 131.999 681.512 134.238 681.512 136.999V157.499C681.512 160.26 679.273 162.499 676.512 162.499H666.012Z" fill="#4FD1C5"/>
<path fill-rule="evenodd" clip-rule="evenodd" d="M560.012 219.001C555.346 217.501 546.212 211.101 547.012 197.501C547.723 185.418 547.434 155.074 547.127 136.767C547.057 132.594 547.052 128.289 548.805 124.501C550.269 121.339 552.812 118.369 557.669 116.498C561.42 115.053 565.53 115.001 569.549 115.001L593.512 115C598.178 116.667 607.312 122.102 606.512 130.501L607.512 197.501C607.845 202.834 605.512 214.602 593.512 219.001H560.012ZM573.012 203.499H581.012C583.221 203.499 585.012 201.709 585.012 199.499V134.501C585.012 132.292 583.221 130.501 581.012 130.501H573.012C570.803 130.501 569.012 132.292 569.012 134.501V199.499C569.012 201.709 570.803 203.499 573.012 203.499Z" fill="#4FD1C5"/>
<path d="M449.513 142.999H429.513V133.499C429.513 132.947 429.065 132.499 428.513 132.499H416.512C415.959 132.499 415.512 132.947 415.512 133.499V155.499C415.512 156.051 415.959 156.499 416.512 156.499H417.012H434.513C446.913 157.699 451.012 165.999 451.512 169.999C451.845 173.999 452.312 185.499 451.512 199.499C450.907 210.086 445.88 215.431 441.663 217.696C439.379 218.923 436.709 218.999 434.116 218.999H412.512C403.956 219.589 397.958 213.325 395.399 209.996C394.425 208.731 394.013 207.158 394.013 205.561V187.999H415.012V200.499C415.012 201.051 415.459 201.499 416.012 201.499H428.513C429.065 201.499 429.513 201.051 429.513 200.499V177.499C429.513 176.947 429.067 176.499 428.515 176.499H409.512C397.112 176.499 394.012 167.832 394.013 163.499V133.999C393.613 122.399 402.846 116.833 407.513 115.499C411.679 114.666 434.513 115.499 434.513 115.499C446.113 117.499 449.346 126.333 449.513 130.499V142.999Z" fill="#4FD1C5"/>
<path d="M791.524 142.999H771.524V133.499C771.524 132.947 771.077 132.499 770.524 132.499H758.523C757.971 132.499 757.523 132.947 757.523 133.499V155.499C757.523 156.051 757.971 156.499 758.523 156.499H759.023H776.524C788.925 157.699 793.024 165.999 793.523 169.999C793.857 173.999 794.323 185.499 793.523 199.499C792.918 210.086 787.891 215.431 783.674 217.696C781.39 218.923 778.721 218.999 776.128 218.999H754.523C745.968 219.589 739.97 213.325 737.41 209.996C736.437 208.731 736.024 207.158 736.024 205.561V187.999H757.023V200.499C757.023 201.051 757.471 201.499 758.023 201.499H770.524C771.077 201.499 771.524 201.051 771.524 200.499V177.499C771.524 176.947 771.079 176.499 770.526 176.499H751.523C739.123 176.499 736.024 167.832 736.024 163.499V133.999C735.624 122.399 744.858 116.833 749.524 115.499C753.691 114.666 776.524 115.499 776.524 115.499C788.124 117.499 791.358 126.333 791.524 130.499V142.999Z" fill="#4FD1C5"/>
<path d="M508.512 217.499H487.012V116.499H508.512V217.499Z" fill="#4FD1C5"/>
</svg>
