<svg width="117" height="43" viewBox="0 0 117 43" fill="none" xmlns="http://www.w3.org/2000/svg">
<path d="M2.2432 34.074C0.0179081 32.1454 -0.136626 28.758 0.0642684 27.3054L1.08422 28.0008L12.3498 34.723C14.0558 34.7972 13.7715 33.5486 13.4161 32.915L0.0642684 24.8019L0.342451 14.8808C0.750422 13.0264 2.5832 12.9646 3.44859 13.1655L12.8134 18.9605L18.9329 15.7153L18.8402 21.2785L12.8134 24.5238L7.20378 21.0468C6.78654 20.6913 5.82224 20.1659 5.30301 20.9077C4.78377 21.6495 5.08666 22.1749 5.30301 22.3449C8.82639 24.5702 17.1713 29.5771 17.1713 29.5771C18.2839 30.3652 18.5621 30.9061 18.6084 31.2924L18.423 39.22C18.6084 42.4096 16.6149 42.558 15.595 42.2335C12.0716 40.3172 2.2432 34.074 2.2432 34.074Z" fill="#4FD1C5"/>
<path d="M39.7096 29.7442C39.2755 32.6567 36.4465 34.8554 35.1127 35.465V34.0278L34.939 21.1625C34.0865 19.6828 33.1852 20.5926 32.8411 21.2324L32.8411 36.8558L24.179 41.7561C22.395 42.4064 21.3598 40.8927 21.0652 40.0545L21.158 28.8817L15.2633 25.5051L20.0084 22.5995L25.9798 25.9455L25.9331 32.7296C25.9331 32.7296 25.9331 33.5531 26.1188 33.8887C26.3045 34.2243 26.6519 34.3767 27.046 34.3523C27.9522 34.2963 28.0659 34.1205 28.1692 33.4528C28.1575 29.2855 28.1692 19.8414 28.1692 19.8414C28.112 18.4506 28.5448 17.9548 28.846 17.7084L35.7811 13.6931C38.3736 11.8258 39.568 13.4288 39.8412 14.4636L39.7096 29.7442Z" fill="#179F93"/>
<path d="M17.542 0.416486C20.2621 -0.711613 23.4648 0.719705 24.6743 1.54892L12.4885 8.994C11.4685 10.1994 12.8106 10.6981 13.5362 10.6635L26.5555 2.83675L35.5832 7.76449C37.0594 8.95859 36.225 11.0802 35.7286 11.3098L26.0256 17.0143L25.9329 23.8293L21.0187 21.0477L21.1037 14.3648L26.9427 10.9104C26.9427 10.9104 27.6156 10.5432 27.8406 10.1542C28.0655 9.76507 27.9843 9.44584 27.7604 9.12062C27.2455 8.37275 26.582 8.60369 26.3966 8.71584C22.8307 10.8724 14.744 15.6323 14.744 15.6323C13.5813 16.3977 12.9334 16.2821 12.5671 16.1509L5.25627 11.9611C2.56737 10.9411 3.30286 8.69852 3.91182 8.15952L17.542 0.416486Z" fill="#32E9D8"/>
<path fill-rule="evenodd" clip-rule="evenodd" d="M93.5806 28.9298H96.9384V22.8388H100.374C101.077 22.6566 102.498 21.9642 102.873 20.0276V15.3423C102.847 14.7436 102.311 13.4838 100.374 13.2339H93.6587L93.5806 28.9298ZM97.0164 20.4182V15.6548H98.6563C99.0876 15.6548 99.4372 16.0044 99.4372 16.4357V19.6373C99.4372 20.0686 99.0876 20.4182 98.6563 20.4182H97.0164Z" fill="#4FD1C5"/>
<path fill-rule="evenodd" clip-rule="evenodd" d="M80.4617 29.2426C79.7328 29.0084 78.3064 28.0088 78.4313 25.8848C78.5424 23.9977 78.4972 19.2587 78.4492 16.3995C78.4383 15.7477 78.4376 15.0754 78.7114 14.4838C78.94 13.9901 79.3372 13.5261 80.0958 13.2339C80.6815 13.0083 81.3234 13.0001 81.9511 13.0001L85.6936 13C86.4224 13.2604 87.8488 14.1092 87.7239 15.4209L87.88 25.8848C87.9321 26.7178 87.5677 28.5556 85.6936 29.2426H80.4617ZM82.4919 26.8216H83.7413C84.0863 26.8216 84.366 26.5419 84.366 26.1969V16.0456C84.366 15.7006 84.0863 15.4209 83.7413 15.4209H82.4919C82.1469 15.4209 81.8672 15.7006 81.8672 16.0456V26.1969C81.8672 26.5419 82.1469 26.8216 82.4919 26.8216Z" fill="#4FD1C5"/>
<path d="M63.204 17.373H60.0804V15.8893C60.0804 15.803 60.0105 15.7331 59.9242 15.7331H58.05C57.9637 15.7331 57.8938 15.803 57.8938 15.8893V19.3252C57.8938 19.4114 57.9637 19.4814 58.05 19.4814H58.128H60.8613C62.798 19.6688 63.4382 20.9651 63.5162 21.5898C63.5683 22.2145 63.6411 24.0105 63.5162 26.197C63.4217 27.8504 62.6366 28.6852 61.978 29.039C61.6213 29.2306 61.2044 29.2425 60.7994 29.2425H57.4252C56.0891 29.3347 55.1522 28.3564 54.7525 27.8365C54.6006 27.6388 54.5361 27.3931 54.5361 27.1438V24.401H57.8157V26.3532C57.8157 26.4395 57.8856 26.5094 57.9719 26.5094H59.9242C60.0105 26.5094 60.0804 26.4395 60.0804 26.3532V22.7611C60.0804 22.6749 60.0108 22.6049 59.9246 22.6049H56.9567C55.0201 22.6049 54.536 21.2514 54.5361 20.5746V15.9674C54.4736 14.1557 55.9157 13.2863 56.6445 13.0781C57.2952 12.948 60.8613 13.0781 60.8613 13.0781C62.673 13.3905 63.1779 14.77 63.204 15.4208V17.373Z" fill="#4FD1C5"/>
<path d="M116.619 17.3728H113.495V15.889C113.495 15.8028 113.425 15.7329 113.339 15.7329H111.465C111.378 15.7329 111.309 15.8028 111.309 15.889V19.3249C111.309 19.4112 111.378 19.4811 111.465 19.4811H111.543H114.276C116.213 19.6685 116.853 20.9648 116.931 21.5895C116.983 22.2142 117.056 24.0103 116.931 26.1968C116.837 27.8502 116.051 28.685 115.393 29.0387C115.036 29.2304 114.619 29.2423 114.214 29.2423H110.84C109.504 29.3344 108.567 28.3561 108.167 27.8362C108.015 27.6386 107.951 27.3929 107.951 27.1435V24.4007H111.23V26.353C111.23 26.4392 111.3 26.5091 111.387 26.5091H113.339C113.425 26.5091 113.495 26.4392 113.495 26.353V22.7609C113.495 22.6746 113.426 22.6047 113.339 22.6047H110.372C108.435 22.6047 107.951 21.2511 107.951 20.5744V15.9671C107.888 14.1555 109.33 13.2861 110.059 13.0779C110.71 12.9477 114.276 13.0779 114.276 13.0779C116.088 13.3902 116.593 14.7698 116.619 15.4205V17.3728Z" fill="#4FD1C5"/>
<path d="M72.4184 29.0081H69.0606V13.2341H72.4184V29.0081Z" fill="#4FD1C5"/>
</svg>
