<svg width="313" height="452" viewBox="0 0 313 452" fill="none" xmlns="http://www.w3.org/2000/svg">
<path d="M17.6231 267.693C0.140735 252.542 -1.07332 225.93 0.50495 214.517L8.51786 219.98L97.0223 272.792C110.425 273.374 108.192 263.565 105.399 258.587L0.50495 194.85L2.69041 116.907C5.89551 102.339 20.2942 101.853 27.0929 103.431L100.664 148.958L148.741 123.463L148.013 167.169L100.664 192.664L56.5944 165.348C53.3164 162.556 45.7407 158.428 41.6615 164.256C37.5823 170.083 39.9618 174.211 41.6615 175.546C69.3419 193.029 134.901 232.364 134.901 232.364C143.642 238.556 145.827 242.805 146.191 245.84L144.735 308.121C146.191 333.179 130.53 334.344 122.517 331.795C94.837 316.741 17.6231 267.693 17.6231 267.693Z" fill="white"/>
<path d="M311.966 233.675C308.556 256.557 286.331 273.83 275.852 278.619V267.328L274.487 166.256C267.79 154.632 260.709 161.778 258.006 166.805L258.006 289.546L189.955 328.043C175.94 333.152 167.807 321.26 165.493 314.676L166.221 226.9L119.911 200.373L157.189 177.545L204.103 203.832L203.735 257.129C203.735 257.129 203.735 263.599 205.194 266.236C206.654 268.872 209.383 270.07 212.479 269.878C219.598 269.437 220.491 268.057 221.302 262.811C221.211 230.072 221.302 155.877 221.302 155.877C220.853 144.951 224.254 141.056 226.62 139.12L281.103 107.575C301.47 92.9054 310.854 105.498 313 113.628L311.966 233.675Z" fill="white"/>
<path d="M137.814 3.27199C159.184 -5.59057 184.345 5.65414 193.847 12.1686L98.1127 70.6586C90.1 80.1282 100.643 84.0464 106.344 83.7744L208.626 22.2861L279.549 60.9994C291.147 70.3804 284.591 87.0483 280.692 88.8521L204.463 133.668L203.734 187.207L165.127 165.354L165.796 112.852L211.668 85.7143C211.668 85.7143 216.955 82.8298 218.722 79.773C220.489 76.7163 219.851 74.2084 218.092 71.6533C214.047 65.7779 208.834 67.5923 207.377 68.4733C179.363 85.4154 115.833 122.811 115.833 122.811C106.699 128.824 101.608 127.916 98.7305 126.884L41.2951 93.9684C20.1706 85.9557 25.9488 68.3373 30.7329 64.1027L137.814 3.27199Z" fill="white"/>
<path fill-rule="evenodd" clip-rule="evenodd" d="M186.777 449.921H199.829V426.245H213.185C215.917 425.537 221.441 422.845 222.898 415.317V397.105C222.797 394.778 220.713 389.881 213.185 388.909H187.081L186.777 449.921ZM200.133 416.836V398.32H206.507C208.183 398.32 209.542 399.679 209.542 401.355V413.8C209.542 415.477 208.183 416.836 206.507 416.836H200.133Z" fill="white"/>
<path fill-rule="evenodd" clip-rule="evenodd" d="M135.783 451.137C132.95 450.226 127.405 446.341 127.891 438.084C128.322 430.749 128.147 412.328 127.96 401.214C127.918 398.681 127.915 396.067 128.979 393.768C129.868 391.849 131.412 390.045 134.36 388.909C136.637 388.032 139.132 388.001 141.572 388L156.119 388C158.953 389.012 164.497 392.311 164.012 397.41L164.619 438.084C164.821 441.323 163.404 448.466 156.119 451.137H135.783ZM143.674 441.726H148.531C149.872 441.726 150.959 440.639 150.959 439.298V399.839C150.959 398.498 149.872 397.41 148.531 397.41H143.674C142.333 397.41 141.246 398.498 141.246 399.839V439.298C141.246 440.639 142.333 441.726 143.674 441.726Z" fill="white"/>
<path d="M68.7006 404.998H56.559V399.23C56.559 398.895 56.2872 398.623 55.9519 398.623H48.6664C48.3311 398.623 48.0593 398.895 48.0593 399.23V412.586C48.0593 412.921 48.3311 413.193 48.6664 413.193H48.9699H59.5944C67.1226 413.922 69.611 418.961 69.9142 421.389C70.1165 423.817 70.3998 430.799 69.9142 439.298C69.5469 445.725 66.4951 448.97 63.935 450.345C62.5484 451.09 60.9279 451.136 59.3539 451.136H46.2381C41.0442 451.494 37.4027 447.691 35.849 445.67C35.2583 444.902 35.0076 443.947 35.0076 442.978V432.316H47.7558V439.905C47.7558 440.24 48.0276 440.512 48.3629 440.512H55.9519C56.2872 440.512 56.559 440.24 56.559 439.905V425.942C56.559 425.607 56.2884 425.335 55.9531 425.335H44.4168C36.8891 425.335 35.0075 420.074 35.0076 417.443V399.534C34.7648 392.492 40.3702 389.113 43.2032 388.303C45.7327 387.797 59.5944 388.303 59.5944 388.303C66.6365 389.517 68.5994 394.88 68.7006 397.409V404.998Z" fill="white"/>
<path d="M276.329 404.998H264.187V399.23C264.187 398.895 263.915 398.623 263.58 398.623H256.295C255.959 398.623 255.688 398.895 255.688 399.23V412.586C255.688 412.921 255.959 413.193 256.295 413.193H256.598H267.223C274.751 413.922 277.239 418.961 277.542 421.389C277.745 423.817 278.028 430.799 277.542 439.298C277.175 445.725 274.123 448.969 271.563 450.345C270.177 451.089 268.556 451.136 266.982 451.136H253.866C248.673 451.494 245.031 447.691 243.477 445.67C242.887 444.902 242.636 443.947 242.636 442.978V432.316H255.384V439.905C255.384 440.24 255.656 440.512 255.991 440.512H263.58C263.915 440.512 264.187 440.24 264.187 439.905V425.942C264.187 425.607 263.917 425.335 263.581 425.335H252.045C244.517 425.335 242.636 420.073 242.636 417.443V399.534C242.393 392.492 247.998 389.113 250.832 388.303C253.361 387.797 267.223 388.303 267.223 388.303C274.265 389.517 276.228 394.88 276.329 397.409V404.998Z" fill="white"/>
<path d="M104.518 450.225H91.4655V388.91H104.518V450.225Z" fill="white"/>
</svg>
